<?xml version="1.0" encoding="utf-8"?>
<!-- Generator: Adobe Illustrator 27.3.1, SVG Export Plug-In . SVG Version: 6.00 Build 0)  -->
<svg version="1.1" id="tipos" xmlns="http://www.w3.org/2000/svg" xmlns:xlink="http://www.w3.org/1999/xlink" x="0px" y="0px"
	 width="30px" height="40px" viewBox="0 0 30 40" style="enable-background:new 0 0 30 40;" xml:space="preserve">
<style type="text/css">
	.st0{fill:#FFFCF7;}
</style>
<path class="st0" d="M13.6,37c-1.3,0-2.6-0.1-3.9-0.2c-1.4-0.2-2.6-0.3-3.8-0.5s-2.2-0.4-3-0.6l0.3-3.8C3.9,32,4.8,32.1,6,32.3
	s2.3,0.3,3.6,0.4c1.2,0.1,2.4,0.2,3.5,0.2c2.3,0,4-0.5,5-1.5c1.1-1,1.6-2.4,1.6-4.4c0-1.4-0.3-2.5-0.8-3.2s-1.3-1.4-2.2-1.8
	c-0.9-0.4-2-0.6-3.2-0.6H6.8v-4h6.6c0.8,0,1.7-0.2,2.6-0.6c0.9-0.4,1.6-1,2.2-1.9c0.6-0.8,0.9-1.8,0.9-2.9c0-1.7-0.5-3-1.5-3.7
	s-2.6-1.1-4.9-1.1c-1.1,0-2.2,0.1-3.3,0.2S7.1,7.6,6.1,7.7S4.3,8,3.6,8.1L3.3,4.4C3.9,4.2,4.8,4,5.9,3.8c1.1-0.2,2.2-0.4,3.4-0.5
	C10.5,3.1,11.7,3,12.9,3c2.7,0,4.8,0.3,6.4,0.9c1.6,0.6,2.8,1.6,3.5,2.8s1.1,2.9,1.1,4.9c0,1.2-0.2,2.3-0.5,3.1
	c-0.4,0.9-0.8,1.6-1.4,2.2s-1.1,1-1.6,1.4c-0.5,0.4-0.9,0.6-1.2,0.8c1.1,0.4,2,0.9,2.9,1.5c0.8,0.5,1.4,1.3,1.9,2.3s0.7,2.4,0.7,4.1
	c0,2.3-0.4,4.2-1.2,5.7c-0.8,1.5-2,2.6-3.6,3.3C18.2,36.7,16.1,37,13.6,37L13.6,37z"/>
</svg>
